<?xml version="1.0" standalone="no"?>
<!DOCTYPE svg PUBLIC "-//W3C//DTD SVG 20010904//EN"
 "http://www.w3.org/TR/2001/REC-SVG-20010904/DTD/svg10.dtd">
<svg version="1.0" xmlns="http://www.w3.org/2000/svg"
 width="596.000000pt" height="596.000000pt" viewBox="0 0 596.000000 596.000000"
 preserveAspectRatio="xMidYMid meet">
<metadata>
Created by potrace 1.11, written by Peter Selinger 2001-2013
</metadata>
<g transform="translate(0.000000,596.000000) scale(0.100000,-0.100000)"
fill="#000000" stroke="none">
<path d="M3307 5614 c-1 -1 -61 -5 -132 -8 -72 -4 -142 -8 -155 -11 -14 -2
-52 -6 -85 -9 -67 -6 -137 -15 -175 -21 -14 -3 -46 -7 -71 -10 -25 -3 -56 -8
-70 -10 -13 -3 -37 -7 -54 -10 -16 -3 -41 -8 -55 -10 -14 -3 -36 -7 -50 -10
-14 -3 -68 -14 -121 -26 l-96 -22 -27 -51 c-106 -195 -177 -333 -175 -342 0
-4 -3 -10 -8 -13 -5 -3 -37 -62 -72 -131 -86 -168 -121 -233 -132 -244 -5 -6
-9 -18 -9 -27 0 -10 -3 -19 -7 -21 -5 -1 -30 -46 -56 -98 -56 -108 -179 -346
-260 -500 -30 -58 -92 -177 -138 -265 -45 -88 -106 -204 -133 -257 -28 -53
-89 -170 -135 -260 -46 -90 -96 -185 -111 -213 -15 -27 -70 -133 -123 -235
-85 -165 -97 -195 -111 -275 -23 -141 -28 -178 -26 -200 1 -11 1 -27 0 -35 -4
-40 -1 -471 4 -515 10 -90 17 -159 21 -190 3 -16 7 -47 9 -68 36 -273 116
-624 206 -902 18 -55 50 -154 71 -220 22 -66 39 -125 39 -132 0 -31 19 -8 45
55 16 37 39 90 51 117 12 28 32 73 43 101 11 29 29 71 40 95 11 24 34 78 51
119 45 109 79 188 106 248 13 29 24 54 24 56 0 3 10 26 22 53 12 26 22 50 22
53 1 6 22 55 63 148 26 60 94 220 98 232 3 10 27 66 40 95 7 16 30 68 50 115
20 47 38 86 40 88 2 2 11 -1 22 -7 20 -12 260 -85 308 -95 17 -3 73 -14 125
-25 52 -10 113 -22 135 -25 22 -4 54 -9 70 -11 34 -6 105 -13 215 -21 548 -39
1061 93 1525 395 39 25 72 48 75 51 3 3 21 17 40 30 19 13 40 29 46 35 7 5 31
25 55 44 77 60 302 293 367 381 35 47 69 92 76 100 7 9 30 45 51 80 22 36 42
67 45 70 25 25 175 340 162 340 -4 0 -2 4 3 8 6 4 21 39 33 77 13 39 26 77 29
85 3 8 7 21 9 29 1 8 9 35 18 60 12 38 36 152 61 296 29 166 26 495 -6 658 -5
28 -12 63 -14 77 -5 29 -5 32 -40 175 -58 242 -58 243 -70 305 -8 40 -13 62
-24 110 -7 25 -14 56 -17 70 -3 14 -14 62 -25 108 -11 46 -24 102 -29 125 -11
52 -17 80 -30 138 -6 26 -12 53 -13 60 -4 21 -17 40 -26 35 -4 -3 -70 -7 -146
-11 -77 -3 -174 -8 -215 -10 -374 -21 -545 -25 -605 -14 -83 16 -179 27 -295
36 -67 4 -369 10 -373 7z m358 -208 c132 -9 263 -24 335 -41 14 -3 37 -7 51
-10 51 -9 201 -56 258 -80 268 -112 443 -289 495 -500 38 -151 40 -355 6 -500
-5 -22 -9 -41 -9 -43 1 -10 -24 -119 -29 -127 -4 -5 -7 -14 -8 -20 -4 -24 -49
-134 -72 -175 -52 -96 -148 -209 -252 -297 -78 -68 -231 -173 -249 -173 -6 0
-11 -3 -11 -7 0 -5 -10 -13 -23 -19 -12 -6 -70 -36 -129 -67 -125 -65 -448
-205 -513 -221 -5 -2 -17 -6 -25 -9 -8 -4 -100 -36 -205 -72 -104 -36 -197
-69 -205 -72 -8 -4 -17 -7 -20 -8 -25 -6 -80 -30 -80 -35 0 -6 25 -44 47 -70
7 -8 81 -112 165 -230 83 -118 156 -219 160 -225 58 -71 258 -368 252 -374
-19 -17 -185 -60 -299 -76 -22 -4 -58 -9 -80 -12 -91 -14 -435 -6 -520 11 -11
3 -24 5 -30 5 -27 3 -37 29 -80 196 -25 99 -50 194 -55 210 -5 17 -11 41 -14
55 -3 14 -12 50 -20 82 -8 31 -18 67 -20 80 -30 135 -46 175 -66 163 -4 -3
-67 -12 -145 -21 -16 -2 -43 -6 -60 -9 -16 -3 -43 -7 -60 -9 -51 -7 -108 -16
-145 -23 -41 -7 -56 -9 -92 -11 -16 -1 -28 -6 -28 -12 0 -5 -11 -33 -24 -62
-33 -74 -116 -268 -116 -273 0 -3 -11 -28 -24 -57 -14 -29 -39 -87 -56 -128
-18 -41 -41 -94 -51 -117 -11 -23 -19 -48 -19 -56 0 -8 -7 -20 -15 -27 -8 -7
-15 -18 -15 -24 0 -12 -88 -224 -154 -369 -14 -32 -26 -60 -26 -63 0 -3 -9
-24 -19 -47 -11 -23 -36 -82 -56 -132 -42 -102 -66 -157 -101 -232 -13 -28
-24 -55 -24 -58 0 -4 -13 -36 -30 -72 -16 -35 -33 -76 -36 -89 -4 -14 -10 -22
-15 -17 -7 7 -65 225 -83 313 -33 155 -44 217 -52 285 -3 22 -7 47 -9 55 -3 8
-7 31 -9 50 -14 103 -17 129 -22 175 -3 28 -7 66 -10 85 -9 63 -12 483 -4 545
5 33 11 80 14 105 9 81 19 114 46 165 15 28 67 127 115 220 48 94 107 206 130
250 59 111 228 435 345 660 40 77 94 181 120 230 53 101 141 269 222 425 31
58 78 148 105 200 28 52 74 142 104 200 29 58 55 107 58 110 4 3 49 89 101
193 53 104 102 189 112 192 19 7 53 14 88 20 14 2 36 7 50 9 53 11 76 16 120
22 24 3 47 7 50 9 3 2 36 6 74 10 38 3 72 8 75 9 3 2 42 7 86 11 44 4 98 9
120 11 22 2 94 6 160 10 66 3 121 7 122 8 4 3 244 -3 328 -8z"/>
<path d="M2800 4676 c-6 -6 -10 -13 -10 -17 0 -6 -93 -199 -357 -739 -58 -118
-136 -278 -173 -355 -37 -77 -100 -204 -139 -283 -39 -79 -71 -147 -71 -152 0
-11 134 20 430 98 171 45 474 151 670 234 168 70 478 241 488 269 2 5 8 9 14
9 14 0 109 80 178 149 206 208 260 465 124 596 -97 94 -206 136 -454 174 -138
22 -682 35 -700 17z"/>
</g>
</svg>
