<svg height="512" viewBox="0 0 64 64" width="512" xmlns="http://www.w3.org/2000/svg"><g id="QR_code" data-name="QR code"><path d="m48 26h2v-5h-5v2h3z"/><path d="m30 23h3v-2h-5v5h2z"/><path d="m48 41h-3v2h5v-5h-2z"/><path d="m30 38h-2v5h5v-2h-3z"/><path d="m49 33v-2h-9v-8h-2v8h-9v2h9v8h2v-8z"/><path d="m47 24h-6v6h6zm-2 4h-2v-2h2z"/><path d="m31 30h6v-6h-6zm2-4h2v2h-2z"/><path d="m31 40h6v-6h-6zm2-4h2v2h-2z"/><path d="m42 34h2v2h-2z"/><path d="m42 37h2v3h-2z"/><path d="m45 34h2v3h-2z"/><path d="m45 38h2v2h-2z"/><path d="m18 6h2v2h-2z"/><path d="m22 6h2v2h-2z"/><path d="m62 32a23.026 23.026 0 0 0 -22-22.975v-2.025a5.006 5.006 0 0 0 -5-5h-28a5.006 5.006 0 0 0 -5 5v50a5.006 5.006 0 0 0 5 5h28a5.006 5.006 0 0 0 5-5v-2.025a23.026 23.026 0 0 0 22-22.975zm-2 0a21 21 0 1 1 -21-21 21.023 21.023 0 0 1 21 21zm-25-22.645a22.982 22.982 0 0 0 -10.293 40.645h-16.707a1 1 0 0 1 -1-1v-41a1 1 0 0 1 1-1h5a1 1 0 0 1 1 1 3 3 0 0 0 3 3h8a3 3 0 0 0 3-3 1 1 0 0 1 1-1h5a1 1 0 0 1 1 1zm-31-2.355a3 3 0 0 1 3-3h28a3 3 0 0 1 3 3v2.025c-.335.015-.668.039-1 .067v-1.092a3 3 0 0 0 -3-3h-5a3 3 0 0 0 -3 3 1 1 0 0 1 -1 1h-8a1 1 0 0 1 -1-1 3 3 0 0 0 -3-3h-5a3 3 0 0 0 -3 3v41a3 3 0 0 0 3 3h19.664a22.833 22.833 0 0 0 9.624 2.93 2.987 2.987 0 0 1 -2.288 1.07h-28a3 3 0 0 1 -3-3zm31 53h-28a3 3 0 0 1 -3-3v-.026a4.948 4.948 0 0 0 3 1.026h28a4.987 4.987 0 0 0 3-1 3 3 0 0 1 -3 3z"/><path d="m38 13h2v2h-2z"/><path d="m47 15.411h2v2h-2z" transform="matrix(.5 -.866 .866 .5 9.79 49.778)"/><path d="m53.589 22h2v2h-2z" transform="matrix(.866 -.5 .5 .866 -4.187 30.37)"/><path d="m56 31h2v2h-2z"/><path d="m53.588 40h2v2h-2z" transform="matrix(.5 -.866 .866 .5 -8.214 67.773)"/><path d="m47 46.589h2v2h-2z" transform="matrix(.866 -.5 .5 .866 -17.364 30.378)"/><path d="m38 49h2v2h-2z"/><path d="m29 46.588h2v2h-2z" transform="matrix(.5 -.866 .866 .5 -26.213 49.78)"/><path d="m22.411 40h2v2h-2z" transform="matrix(.866 -.5 .5 .866 -17.361 17.195)"/><path d="m20 31h2v2h-2z"/><path d="m22.411 22h2v2h-2z" transform="matrix(.5 -.866 .866 .5 -8.213 31.774)"/><path d="m29 15.411h2v2h-2z" transform="matrix(.866 -.5 .5 .866 -4.186 17.2)"/><path d="m57 52h-2v2h-2v2h2v2h2v-2h2v-2h-2z"/><path d="m53 60h6v2h-6z"/><path d="m18 53h6v2h-6z"/></g></svg>