<?xml version="1.0" encoding="utf-8"?>
<!-- Generator: Adobe Illustrator 16.0.0, SVG Export Plug-In . SVG Version: 6.00 Build 0)  -->
<!DOCTYPE svg PUBLIC "-//W3C//DTD SVG 1.1//EN" "http://www.w3.org/Graphics/SVG/1.1/DTD/svg11.dtd">
<svg version="1.1" id="Layer_1" xmlns="http://www.w3.org/2000/svg" xmlns:xlink="http://www.w3.org/1999/xlink" x="0px" y="0px"
	 width="127.777px" height="148.611px" viewBox="0 0 127.777 148.611" style="enable-background:new 0 0 127.777 148.611;"
	 xml:space="preserve">
<style type="text/css">
<![CDATA[
	.st0{fill:#010101;}
]]>
</style>
<g>
	<path class="st0" d="M119.941,37.851L119.941,37.851l-0.001-0.008c-0.214-1.222-0.491-2.387-0.796-3.523l-5.77-25.541L90.64,9.987
		c-4.519-0.926-9.596-1.396-15.229-1.396c-14.343,0-27.185,3.028-27.725,3.157l-2.216,0.53l-1.055,2.019L8.853,82.415L8.585,82.93
		l-0.144,0.562c-0.091,0.353-2.195,8.807-0.743,22.642c1.405,13.387,4.455,23.051,4.584,23.456l4.085,12.808l5.277-12.364
		l11.747-27.521c8.136,3.064,18.239,4.767,26.606,4.767c33.508,0,60.668-27.161,60.668-60.665
		C120.666,43.481,120.417,40.562,119.941,37.851z M13.285,84.729l35.562-68.118c0,0,12.644-3.021,26.562-3.021
		c11.125,0,23.064,1.931,30.011,8.877c8.883,8.883,2.5,25.625,2.5,25.625c-5.917,16.687-34.25,23.205-44.25,27.353l16,22.436
		c0,0-3.375,1.606-11.083,2.398c-1.189,0.122-2.408,0.172-3.601,0.172c-5.036,0-9.608-0.881-9.608-0.881l-4.958-19.478l-13.75,2
		l-19.625,45.978c0,0-3.007-9.428-4.375-22.458C11.296,92.509,13.285,84.729,13.285,84.729z"/>
	<path class="st0" d="M89.662,44.361c4.528-15.354-25.826-11.945-30.127-12.75L40.503,70.829
		C40.502,70.829,84.377,62.284,89.662,44.361z"/>
</g>
</svg>
